<?xml version="1.0" encoding="UTF-8"?>
<!DOCTYPE svg  PUBLIC '-//W3C//DTD SVG 1.0//EN'  'http://www.w3.org/TR/2001/REC-SVG-20010904/DTD/svg10.dtd'>
<svg width="282.05mm" height="147.62mm" clip-rule="evenodd" fill-rule="evenodd" image-rendering="optimizeQuality" shape-rendering="geometricPrecision" text-rendering="geometricPrecision" version="1.0" viewBox="0 0 7245 3792" xml:space="preserve" xmlns="http://www.w3.org/2000/svg">
 <defs>
  <style type="text/css">
   <![CDATA[
    .fil1 {fill:none}
    .fil0 {fill:black}
   ]]>
  </style>
 </defs>
    <path class="fil0" d="m94 1013c65 307 94 825 120 1150 22 262 65 1206-2 1437-10-95-5-33-12-154-25-422-73-858-88-1277-12-321-49-851-18-1156z"/>
   <path class="fil1" d="m94 1013c21 403 157 2379 118 2587"/>
    <path class="fil0" d="m0 1002c345-98 860-71 1198 47-133 16-205 10-336 6-237-8-643-12-862-53z"/>
   <path class="fil1" d="m0 1002c498-25 689-10 1198 47"/>
    <path class="fil0" d="m1087 993c-93 442-126 826-161 1273-17 216-38 465 13 676-149-111-105-893-80-1080 34-264 82-652 228-869z"/>
   <path class="fil1" d="m1087 993c-169 321-292 1789-148 1949"/>
    <path class="fil0" d="m872 2852c188-34 340-51 533-95 415-95 497-79 518 406 6 120 3 246 1 366-102 82-59 57-209 65-260 13-1568 72-1695-93 265 105 1414 5 1800-22 7-144 15-305 6-444-13-196-28-274-229-250-267 32-443 97-725 67z"/>
   <path class="fil1" d="m872 2852c895-18 1039-488 999 676 0 7-1716 122-1851-27"/>
    <path class="fil0" d="m309 971c-164 6-208 31-216 227-10 243 54 490 40 755-24 479-25 951-37 1429-2 106 1 64-11 163-63-289-70-956-69-1269 0-200 31-375 25-573-4-162-102-905 268-732z"/>
   <path class="fil1" d="m309 971c-402-103-184 576-225 977-32 313-18 1226 1 1597"/>
    <path class="fil0" d="m109 3494l-1 1c4-158-8-371-15-551-2-45-4-93-4-143-5-126-15-415 5-436 25-27 56-11 66 15 17-9 38-7 55 7 7 6 12 19 17 37h2v13c18 107 4 343 1 410-1 18 3 148-18 236-7 92-16 171-28 216-1 5-1 9-1 10h-2c-5 15-11 26-17 29-3 2-6 4-9 5 5 106 12 199 15 240-1-1-1-1-1-2 0 4 0 7-1 9l-13 1c-7-11-18-70-29-151-3 35-6 57-9 62-9 15-12 6-13-8z"/>
   <path class="fil1" d="m111 3450c21 410-6-1973 26-664 21 825 66-161 45-359 7 126 2 756-33 878 62-506-47-635-18-68 2 37 51 512 30 288"/>
    <path class="fil0" d="m160 3494c145 6 573-14 925-11 153-7 306-13 459-20 93-8 187-12 254-15-21-161-43-258-104-429-27-76-17-113-35-155-21-49-152-10-237 15h26v2c8 0 13 1 15 3l7 15c-3 9-10 15-20 19v3l-11 1c-10 2-22 3-35 2-168 14-335 31-502 46-14 1-206 43-172-34 11-24 165-46 281-60-73-12-139-25-171-38 100 3 199 13 299 23 159-23 312-78 447-97 181-26 141 125 186 223 49 108 91 281 111 399 2 18 9 41 13 64 6 3 14 5 23 9 24 49 23 24 4 75-9 4-19 8-31 11-7 12-16 22-30 29-42 22-424 77-588 40-229-6-509-23-647-21-95 1-149 32-181-36 4-12 9-21 13-28-124-5-230-16-299-35z"/>
   <path class="fil1" d="m160 3494c215 51 1391-42 1426 83-273 14-743-40-1097-22 458-24 929-33 1395-57-1401 73-21 115-31 19-34-350-137-548-137-553-14-282-127-124-574-68-869 110-40 22 307 4-133 7-609-57-609-62"/>
    <path class="fil0" d="m939 1140c3 15 5 33 6 56 70 5 39 164 36 190-17 202-38 424-62 644-6 73-12 142-19 203-4 86-7 163-11 222-3 52 2 73-27 87-11 153-21 261-25 267-23 32-67 22-68-39-1-54-2-110-1-167-9-15-14-34-15-56-3-320 33-744 56-1069 5-70-9-93 39-123 4 1 7 3 10 5 16-90 36-150 60-159 7-3 14-4 20-5 0-23 1-42 1-56z"/>
   <path class="fil1" d="m939 1140c49 205-199 2565-93 407 40-822-124 1913-5 729 7-70 165-1518 62-852-45 287-87 1798-60 664 7-321 53-1068 13-181-44 934-70 1386-37 26 22-890-6 1621-18 441-1-32-28 17-30 33"/>
    <path class="fil0" d="m823 1083c159 15 299 33 310 46 70 84-235 90-242 90-86 9-655 78-696-10-15-32 2-57 35-76-129-32-138-103-42-67-2-37 20-87 84-127 92-57 265-5 333 61 85-5 214-7 222 57 1 9-1 18-4 26zm-354-76c-2-1-4-1-6-2-53-20-125-21-164 13 54-7 120-10 170-11zm285 123c-24 9-53 16-84 23 71-3 135-6 179-8-31-5-63-10-95-15z"/>
   <path class="fil1" d="m344 1047c6 0 728 98 764 104 16 34-1552 118-513-45 518-81-232-52-357-34-33 68 10-275 354-38 94 65-351 135-449 39 53 4 205 99 255 126"/>
    <path class="fil0" d="m116 1136c-2 1-3 2-3 3 1-1 2-1 3-3zm167-23c193 23 521-40 643-72 82-21 198-94 176 65l-8 26c-8-15-25-64-34-82-251 113-581 232-855 136-24-8-49-22-68-38-54-1-69-24-30-37-9-21-2-42 32-56 92-38 232 12 144 58zm774-67c0-1-1-1-1-2l-1 1c1 0 2 1 2 1z"/>
   <path class="fil1" d="m160 1103c-235 82 335-56 15-18-138 17 212 208 884-58 26-11 34 87 35 105"/>
    <path class="fil0" d="m1722 2777l24 48c1-10 4-21 7-30 42-20 20-19 64-3 4 9 8 19 11 31h4v17c4 15 6 31 9 48 9-2 20 2 33 12 52 42 18 478 7 552-18-70-29-161-38-249-10 8-23 10-40 6-56-14-64-162-64-271-9-74-15-146-17-161z"/>
   <path class="fil1" d="m1722 2777c89 280 89 513 65 49 45 874 46-316 77 285 5 114 11 227 17 341"/>
    <path class="fil0" d="m2048 974c21 69 40 218 58 395 6-93 14-181 26-262 20-146 10-79 19-187 0-2 0-12 2-13h1c26 3 3 327 3 327-13 372 1 775 23 1177 23 351 54 721 67 1070 1 4 1 3 0 9l-106 5c-19-120-18-379-23-520-8-193-17-420-23-658-6-136-11-271-17-407-11-291-36-648-30-936zm92 2510c-1 0 0 0 0 1v-1z"/>
   <path class="fil1" d="m2048 974c27 78 167 2922 143 2459-29-552-110-1910-31-2432 0-1-7-99-6-94"/>
    <path class="fil0" d="m2077 926c-66-3-102-51 80-51 46 0 271 5 414 28 179-24 322-38 278-6-9 6-17 7-27 6-38 13-84 26-135 38 1 2 2 3 2 5 28 76-103 56-127 56-58 1-151 8-245 18-20 4-40 8-57 11-36 7-318 92-282-28 12-41 106-64 221-76-50-6-113-13-140-17 8 8 18 16 18 16zm761-42zm-790 16c0-1-1-1-1-1l1 1z"/>
   <path class="fil1" d="m2077 926c-224-87 558 25 572 34-445-35-1239 194 191-73 20-4-17 16-19 16"/>
    <path class="fil0" d="m2838 934c10 136 7 317 2 492 6 2 13 7 19 15 22 23-15 487-19 562-2 32 3 87-13 112-8 176-14 351-20 516-2 28 3 232-9 322v2-1c0 2-1 4-1 6 1 45 2 88 4 130 7 36 12 62 12 66 5 30 85 344-33 311-17-5-32-32-43-74-21 51-53 90-101 107-9 4-20 6-33 9 9 7 14 13 16 18 27 78-170 11-265-21-18-4-34-9-47-14v-1c-8-3-15-8-20-12l11-44c6-1 12-2 19-1-62-23-118-40-145-39 33 62 285 207 269 225-18 20-125 15-67-31-78-48-186-117-228-167-95-115 189-41 358 33 41-1 79-6 109-18 156-60 49-546 39-666l38-42c-1-202 4-379 4-425 2-94-14-87 47-131 13-231 29-461 50-691 1-1 1-2 1-3 13-247 32-485 46-545zm-669 2454h-1 1zm209 204c-16 27-14 33 33 21-10-7-21-14-33-21z"/>
   <path class="fil1" d="m2838 934c-10 46-67 2036-13 719 30-748-65 943-66 1006-24 1104 3-1253-14-123-17 1070 139 1139-22 382-107-505 115 426-65 535-163 99-550-60-211 49 602 193-890-455-14 113-2 4-118 30-48-34"/>
    <path class="fil0" d="m2160 1031c-82-35-56 88-51 155 14 185 37 323 36 513 0 15-1 45-1 86 12 44 9 113 9 113 14 288 19 577 28 866 5 102 8 205 10 266 3 26 5 42 2 55 20 191 46 364 75 409 166 117 225 25 282-162 108-359 84-798 62-1168-5-88-47-680 23-724 3-1 5-2 8-4-3-102-4-229 2-320 3-150 19-276 62-290 58-19 80 65 90 137 8 5 15 13 23 24 7 14 5 89-3 191 0 16-1 31-3 45-9 103-23 225-38 338-1 29-2 54-4 76 1 19 2 37 3 55 1 48 18 345 18 550 28 306 57 681 50 789-1 17-3 27-6 30-18 15-32 4-41-19 23 197 50 372 73 425-1-25 5-19-13-81 1 2 39 94 26 105-59 55-139-656-159-858-1 203-15 405-59 608-49 230-185 549-450 319-77-67-112-505-126-775-25-25-14-149-14-151 0-105-10-845 19-871 10-8 17-12 24-12 2-90 1-176-3-254-1-22-74-571 46-466z"/>
   <path class="fil1" d="m2160 1031c-119-86-29 313-29 566 0 91-38 1819-31 894 12-1755 41 272 57 590-79-1529-40 344 84 446 483 393 441-1112 433-1182-45-428-24-1456 30-402-6-124-9-1339 10-742 37 1178-56-251 8-328 137 554-68 382 54 139 28-55-145 1496-81 551 39-587-16-998 30-110 31 602 53 1627-13 340-23-433 215 2243 54 836-104-916 15 823 112 858-12-45 12-27-22-101"/>
    <path class="fil0" d="m2250 964c10-1 578-53 516 52-6 11-36 22-79 33 33 8 55 18 60 33 1 1 10 739 13 806 13 366 33 1356 145 1658 45 123-210 35-305 1-29 17-67 29-103 22-187 30-202-48-163-61 27-9 53-17 76-23 0-28 42-32 101-24 101-17 137 1 137 27 67 17 132 36 171 46-2-7-5-17-9-30-144-460-170-1825-145-2377-97-16-395-16-462-18v-2c-15-1-25-3-28-5-27-23-15-50 21-59v-2c16-1 32-1 50-2 28-2 74-4 127-5 100-5 205-13 295-31-121-17-381-35-418-39zm178 2559c-30 5-57 11-73 14 10 13 61 18 109 19-12-7-23-16-32-28-2-2-3-4-4-5z"/>
   <path class="fil1" d="m2250 964c776 3 551 80-53 111 2 0 513-6 511 23-28 614 37 2207 161 2458 37 76-284-78-427-71 46 160 443-104-104 39-23 64 177 35 216 33"/>
    <path class="fil0" d="m2048 315c-6-32-12-64-14-91-10-7-19-16-20-29 0-5 7-10 18-15 2-30 12-46 35-34 10-29 26-49 53-40 11 3 19 19 25 43 5-2 11-3 16-4-11-9-19-21-23-34-22-91 196-53 312-28 72-14 132-19 148-2 3 3 6 6 8 10 3 0 5 0 6 1 19 11 19 22 9 32 50 11 61 1 61-68h5c2-13 4-25 8-35 44-21 22-20 68-3 6 11 10 23 13 34l3-1c9 126 8 116 19 234 11 112 67 338-58 398-36 17-158 22-279 23-16 4-34 9-54 13-406 90-390-81-359-404zm-15-102c-1-6-1-12-1-18-4 2-6 4-5 5 0 3 3 8 6 13zm127 212c7 89-4 157-45 126 5 42 14 74 29 87 13 9 31 15 52 17l-9-47c48-11 279-34 384-31l4-1v1c19 1 33 2 41 5l-2 12c50-4 85-9 90-15 28-46-1-220-14-368-23 6-49 7-78 3-65-9-110-20-153-31-20 5-34 7-34 7-8 2-176 53-268 53 4 59 4 127 3 182zm-10-252z"/>
   <path class="fil1" d="m2154 317c-183-276 5 364-61 97-118-475 54-150 40 76-13 218-5-713-46-187-26 337-89 508 502 317 5-1-391 36-386 36 694-36 566 134 528-602 12 242-219 29-552 47 183 164 781-136 1 94-332 98 1204-219-140-14-37 6-12 34 1 48"/>
    <path class="fil0" d="m2149 151c-7-24 49-62 128-84 56-16 614-146 529 5-14 24-81 47-164 67-15 38-38 43-75 41-38 4-60 6-110 10-45 5-226 46-254-8-45 0-90 0-133-1 18-12 45-22 79-30zm32-7c8-2 16-4 24-5 1-1 1-2 1-2 2-4 4-7 8-10-14 5-26 10-35 15 1 0 1 1 2 2zm568-56zm-571 53v-2 2z"/>
   <path class="fil1" d="m2224 173c-356-91 1017-198 365-75-469 88-439 64 15 40-65 3-507 20-534 43"/>
    <path class="fil0" d="m3207 995c38 216 55 540 62 883 1 15 2 30 3 44 10 154 93 1270 23 1350-7 8-14 14-21 18-7 43-14 84-21 120-1 43-6 88-15 118 6 8 20 13 39 16l3-3c27-27 361-27 410-28 25-1 127-14 142 27 16-1 30-2 43-4-39-73-73-233-98-405-16-36-20-106-20-160-20-179-29-346-23-416 1-13 9-23 20-29 2-148 11-284 39-288s39 42 44 90c10 35 12 113 9 192 11 160 29 484-4 535 23 177 53 346 84 417 16 36 71 84 16 123-26 18-147 24-276 24-57 6-112 9-134 11-130 11-285 32-353-34-36 82-103 54-100-51 5-166 24-451 32-711-15-130-22-241-22-257 0 0-16-146 5-236-14-303-14-609 19-950 8-82 13-207 13-327l-9-189c-4-88-19-79 39-124l41 27c9 12 11 105 10 217zm-44 1282c6 2 12 6 18 10 9 6 15 21 21 43-10-195-22-392-35-588-9 184-9 359-4 535z"/>
   <path class="fil1" d="m3176 854c129 349 45 2980 28 2650-38-728-135-1389-51-2108 38-324-27-1070 26-182 0 8 192 2716 22 1858-145-733 28-1385-70 440-24 429 167-1089 103-251-22 281-254 400 550 296 75-10-851 20-298 15 154-1 499 35 432-37-156-169-185-1822-113-415-30-11-30-1494 19-532 56 1080-92-80-1-265 2-4 44 350-20 455"/>
    <path class="fil0" d="m3781 850c-23 17-84 12-97 13-53 3-449 34-476-6-45-67 112-68 115-68 85-9 666-66 704 29 10 26-32 128-37 151-36 153-71 354-88 511-3 20-3 26-3 30-1 5-3 7-10 27-3 54-7 105-9 146-3 60 3 67-17 84-3 63-15 150-60 114-17-13-26-299-22-396-1-6-1-12-2-17l3-1c1-6 1-10 2-13l5-2c-13-103-9-243-1-309 9-82 52-99 82-76 18-78 38-150 60-206-38-6-90-10-149-11zm160-18c3-7 6-13 9-19-5 6-8 13-9 19zm-683-21l-1-1 1 1z"/>
   <path class="fil1" d="m3283 817c-229-11 1064 14 156 25-695 8 620-80 544 1-38 40-139 625-137 670-25-486 21-596-9 50-32 714 61-974 12-108-33 571-26 505-52 12 3 43 20 278 1 302"/>
    <path class="fil0" d="m3925 1825c0-50 11-101 30-153-9-8-15-20-14-33 1-44 128-211 254-371 30-45 84-128 140-201-2-53 30-114 55-156 16-28 238-291 299-228 79 83-550 865-637 966-20 23-41 34-59 35-31 56-56 104-68 141zm432-786c51-64 101-113 128-106 3 1 5 2 8 2 55-75 100-140 126-183-83 52-199 173-235 234-11 19-20 36-27 53zm-392 548c-2 1-3 2-3 3l3-3zm698-856z"/>
   <path class="fil1" d="m3925 1825c-13-238 1017-1443 288-491-850 1108 1105-1285 222-453-33 31-104 165-98 208"/>
    <path class="fil0" d="m4551 721c41 3 88 7 138 10 131-64 397-138 444-70 74 106-220 134-237 135-15 1-30 2-45 2 157 10 385 5 482 22-76 23-763 145-715-36 2-7 10-15 22-24-28-11-57-24-89-39zm508-48c1-1 1-1 1-2 0 0-1 1-1 2z"/>
   <path class="fil1" d="m4551 721c520 169 861-227 114 76 4 75 558 29 668 23"/>
    <path class="fil0" d="m5319 868c-50 88-568 807-640 826-3 1-6 1-9 1-19 29-65 111-110 147-47 75-92 149-132 213-52 110-109 222-156 304-12 26-21 43-21 43l-3-4c-3 6-6 11-10 16-50 4-32-46-4-99 3-20 8-45 15-73-13-12-18-34-7-58 34-77 267-540 311-547 4 0 8-1 11-1 12-18 25-37 38-56 27-43 54-85 84-127 15-22 56-99 101-122 59-75 109-136 128-159 15-17 164-227 213-136 7 13 1 37-13 68 67-80 135-159 204-236zm-1055 1384h-1c-5 13-10 25-15 37l2-3c4-11 9-22 14-34z"/>
   <path class="fil1" d="m5319 868c-39 71-812 1017-609 747 793-1058 155-390-159 145-164 281 553-816 107-176-104 148-670 1168-186 244 290-553-234 560-243 563 266-539 29-261 2-54"/>
    <path class="fil0" d="m3879 2448c-26-39-27-58-6-38 16 14 43 49 82 114 4 7 14 23 26 44 8-2 17-1 28 2 102 29 413 785 385 852-6 14-13 24-21 29 23 72 35 126 25 139-19 27-41 20-63-4 3 11 6 23 8 34-76-137-168-336-232-483-7-15-34-60-16-79-13-29-25-58-36-87-73-134-133-317-104-381-32-65-60-120-78-152l2 10z"/>
   <path class="fil1" d="m3879 2448c-109-269 509 913 264 590-193-254-257-827 79 3 361 894-176-121-172-291 75 202 588 1407 133 462-212-440 137 332 160 408"/>
    <path class="fil0" d="m4296 2299l-1-1 1 1zm187 323c14 26 29 52 44 79 4 4 6 9 8 15 27 49 54 100 82 158 18 35 12 54 0 63 23 45 60 121 66 173 103 194 221 397 197 478-22 73-96 80-182 64v3h-21c16 9 27 18 28 27 16 97-357-42-363-55-7-18 3-28 24-32-1-4-2-8-3-11-10-11-18-23-21-37-37-164 376 50 446 15 1-25-11-54-20-75-123-287-287-392-336-753h3v-4c-28-66-55-128-77-181-32-78-58-94-32-146-24-58-39-102-35-118 12-53 56 39 86 115 9 10 22 36 37 68 22 47 46 99 69 154zm306 940v-1 1z"/>
   <path class="fil1" d="m4409 2483c-28-38-219-457 2 62 2 6 359 661 85 204-6-10-310-704-18-20 356 831 11 97 6 3 22 428 761 1089 31 817-243-90-131 84 181 68-11 2-586-103-105 38 370 109-618-97-45-25 332 43-134-54-3-51"/>
    <path class="fil0" d="m4381 2236c143 320 330 629 268 995-46-131-15-35-50-166-37-136-85-249-125-381-27-86-140-363-93-448z"/>
   <path class="fil1" d="m4381 2236c-26 101 245 533 268 995"/>
    <path class="fil0" d="m3846 1813c46-120 777-1117 823-1136 32-13 161 32 231 39 132 12 417-40 469-4 107 74-138 330-182 384-88 109-176 209-271 311-9 17-4 9-18 26 2-105 399-540 418-652-23-2-29 2-81 9-245 29-297 54-527-4-125 156-259 313-386 466-120 146-347 442-476 561z"/>
   <path class="fil1" d="m3846 1813c72-117 835-1080 844-1086 567 190 1056-382 220 676l-12 30"/>
    <path class="fil0" d="m5613 837c-97 143 2 2157-7 2518-1 22-10 19-32 37l-7-4c1 14 1 28 2 41 3 74 9 71 3 88-1 6-5 14-10 28-35 17-17 16-54 3-2-5-5-15-7-27h-5c-2-19-3-38-4-57-14-122-24-347-31-516-6-80-12-167-16-248-50-662-64-1568-26-1851 5-38 7-129 73-121 71 8 53 154 55 216 2 56 4 113 6 170 13-166 32-273 60-277z"/>
   <path class="fil1" d="m5613 837c-109 47-41 2527-45 2518-93-200-166-2286-82-2574 45 874-1 1794 48 2738-3-61-87-1379-67-997 87 1679-26-506 52 1006"/>
    <path class="fil0" d="m5532 779c-137-31 103-61 117-62 8-1 184-7 370-6 202-23 452-42 516-36 214 17 374 115 610 71 143-27 95 130 80 228-10 62-38 348-76 379-20 16-36 15-51 4 4 59 2 108-17 125-43 37-323 60-539 74l-14 41c-68 1-267-2-331 22 7 65 28 256 8 297l-23 8 1 12c97-62 218-89 340-94 145-32 444-47 479-34 167 61 64 504 56 647v22c5 52 4 121-52 121-27 0-42-20-49-54h-3c0-9 0-18-1-27-1-11-1-23-1-35-39 2-95 1-178 4-68 2-189 9-258-2-65 2-395 6-432 21-12 52 36 166 31 264v26h-3c-2 11-4 21-8 32-9 4-15 7-19 9 4 65 12 128 27 155 112-2 734-57 757-45 18 9 25 21 25 32 38 6 69 17 84 31 49 47 35 207 39 279 22 384-52 325-448 318-226-3-430 15-647 22-96 12-186 15-214-5-74-53-137-334-121-365h10c0 2 1 3 1 5 2 6 2 14 3 24 14 91 57 251 112 305 3 3 6 5 9 7 2-5 6-11 14-17 28-24 573-107 493-25 140-7 654 0 696-24 62-36 17-401 11-462-3-29-71-34-145-29-72 21-215 58-239 22-5-7-7-14-7-20-183 19-384 39-453 30-103-14-114-338-83-439-24-169-48-224 170-234 252-11 502-9 753-20l-3-75c-1-36-5-116 50-111 13-115 21-223-6-276-5-10-52-11-114-8 8 30-18 64-106 66-7 0-211 13-291-27-102 10-199 38-259 93-119 107-111-66-117-129-8-72-55-203 4-227 5-2 11-4 16-4-2-26-3-52-3-77 0-55 65-81 144-93 38-69 613-35 769-87-6-82-26-317 9-350 47-45 75 37 94 114 22-128 52-325 53-379-6 1-11 2-13 2-210 37-371-30-573-68-29-6-92-7-170-6 43 11 60 26 36 47-63 54-847 92-702-26 10-8 47-16 101-25-130-2-242-1-285 4-84 10-76 15-34 40zm996 729zm-321-759c-139 8-280 22-362 36 135 14 414 3 535-18-42-7-103-13-173-18z"/>
   <path class="fil1" d="m5532 779c-327-119 1757-29 503 36-196 10-490-36-21-75 695-59 372-50 947 48 287 49 289-223 181 482-43 279-126-628-85 176 4 70-1287 75-536 106 53 3-375-16-372 52 25 470 36 241-41 128 111 606-170 67 663 179 242 32-880 8 185-56 167-10 38 465 50 692 4-87-44-553-22-119-455 23-460 8-466 8-626 33-468-58-447 361-23-452-68 220 28 235 128 21 1178-129 563-2-289 60 300-114 308 39 37 702 121 454-837 521-1015 71 346-110 33-29-275 71-404 63-409 64-156 8-186-602-153-256"/>
    <path class="fil0" d="m5579 777c102-53 704-68 1071-41 261-8 474 15 511 100 33 77-74 43-96 41-47-6-102-11-162-16-13 7-27 12-38 15-373 98-656 128-1045 103-151-10-165 18-303 26-104 5-136-88 13-128 80-21 349-69 647-104-255-10-502-10-598 4zm1057 69c-74-2-150-4-225-5-131 14-261 32-370 48 46 3 91 5 132 4 97-1 295-20 463-47z"/>
   <path class="fil1" d="m5579 777c95-65 1613-15 1278 62-455 103-661 122-1115 83-22-2-400 63-198 8 230-64 1473-264 1586-76-51-34-1092-52-1190-3"/>
    <path class="fil0" d="m5659 3241s-14 158-41 245c9 97 24 197 44 230 175-17 353-34 531-51-70-110 216-97 227-97 36-2 482-5 488-52 5-36-36-272-40-351-4-88-2-120 2-194-243-11-612 95-775 21-118-54-128-347-115-457 13-114 98-88 193-93 285-16 570-54 856-48-315 48-662 88-981 111-31 69 16 334 41 391 65 149 785-97 862 9 16 22 6 197 10 255 7 113 74 352 24 421-24 33-89 54-173 68l4 46c-193 19-390 34-583 50-163 14-427 47-576 47-67 0-95-125-108-251-20-28-27-101-32-175-20-95-34-198-8-206 31-9 48 55 59 132l35-1c1 24 4 73 8 128 22-75 46-170 48-178z"/>
   <path class="fil1" d="m5659 3241c-67 355-84 420-144-58 25-19 66 670 57 139-3-169 2 436 83 432 79-4 1384-129 1120-104-5 0-915 0-352-29 810-41 447 19 492-690-204-52-774 156-857-21-24-50-92-430-15-434 352-18 694-67 986-82"/>
    <path class="fil0" d="m6112 1586c6-4 15 8 21 36 12 60 52 533-26 529-56-4-54-277-58-320-40-488-18-499 513-512 62-2 315-28 348 13 36 46 2 73-46 89 44 1 74 4 81 10 65 60-100 84-188 92l-45 15c-33 8-259 38-347 28h-3 2c-14-2-24-5-29-9v-22c-94 5-175 7-219 2-2 15-3 31-4 49zm786-158c2-1 3-2 4-2-1 0-3 1-4 2zm-788 180c-2 67-1 150 1 230 7-101 10-199 2-235-1 1-2 3-3 5zm7-10z"/>
   <path class="fil1" d="m6104 1619c50-213 17 943-15 317-32-613-126-562 762-573 220-3-1537 200-278 109 931-67-326 78-211 72 130-7 333 0 450-39"/>
</svg>
