<svg xmlns="http://www.w3.org/2000/svg" xmlns:xlink="http://www.w3.org/1999/xlink" enable-background="new 0 0 512 512" height="47" version="1.1" width="35" xml:space="preserve" style=""><rect id="backgroundrect" width="100%" height="100%" x="0" y="0" fill="none" stroke="none" class="" style=""/><g class="currentLayer" style=""><title>Layer 1</title><g id="svg_1" class="selected" fill="#000000" fill-opacity="1"><g id="svg_2" fill="#000000" fill-opacity="1"><path d="M17.47332000732422,0 C7.823770040154457,0 0,7.823770040154456 0,17.47332000732422 s17.47332000732422,29.12220001220703 17.47332000732422,29.12220001220703 s17.47332000732422,-19.47265004503727 17.47332000732422,-29.12220001220703 S27.12286997449398,0 17.47332000732422,0 zM17.47332000732422,29.12220001220703 c-6.433093982696533,0 -11.648880004882812,-5.215786022186279 -11.648880004882812,-11.648880004882812 c0,-6.433093982696533 5.215786022186279,-11.648880004882812 11.648880004882812,-11.648880004882812 c6.433093982696533,0 11.648880004882812,5.215786022186279 11.648880004882812,11.648880004882812 C29.12220001220703,23.906413990020752 23.906413990020752,29.12220001220703 17.47332000732422,29.12220001220703 zM17.47332000732422,11.648880004882812 c-3.2166379982233044,0 -5.824440002441406,2.6078930110931395 -5.824440002441406,5.824440002441406 s2.6078020042181023,5.824440002441406 5.824440002441406,5.824440002441406 c3.2165469913482667,0 5.824440002441406,-2.6078930110931395 5.824440002441406,-5.824440002441406 S20.689866998672485,11.648880004882812 17.47332000732422,11.648880004882812 z" id="svg_3" fill="#000000" fill-opacity="1"/></g></g></g></svg>